Coordinates
version=1
nRows=6
nColumns=63
inDegrees=yes

Units are S.I. units (second, meters, Newtons, ...)
If the header above contains a line with 'inDegrees', this indicates whether rotational values are in degrees (yes) or radians (no).

endheader
time	pelvis_tilt	pelvis_list	pelvis_rotation	pelvis_tx	pelvis_ty	pelvis_tz	hip_flexion_r	hip_adduction_r	hip_rotation_r	knee_angle_r	knee_angle_r_beta	ankle_angle_r	subtalar_angle_r	mtp_angle_r	hip_flexion_l	hip_adduction_l	hip_rotation_l	knee_angle_l	knee_angle_l_beta	ankle_angle_l	subtalar_angle_l	mtp_angle_l	L5_S1_Flex_Ext	L5_S1_Lat_Bending	L5_S1_axial_rotation	L4_L5_Flex_Ext	L4_L5_Lat_Bending	L4_L5_axial_rotation	L3_L4_Flex_Ext	L3_L4_Lat_Bending	L3_L4_axial_rotation	L2_L3_Flex_Ext	L2_L3_Lat_Bending	L2_L3_axial_rotation	L1_L2_Flex_Ext	L1_L2_Lat_Bending	L1_L2_axial_rotation	L1_T12_Flex_Ext	L1_T12_Lat_Bending	L1_T12_axial_rotation	Abs_r3	Abs_r2	Abs_r1	Abs_t1	Abs_t2	neck_flexion	neck_bending	neck_rotation	arm_flex_r	arm_add_r	arm_rot_r	elbow_flex_r	pro_sup_r	wrist_flex_r	wrist_dev_r	arm_flex_l	arm_add_l	arm_rot_l	elbow_flex_l	pro_sup_l	wrist_flex_l	wrist_dev_l
11.305085	0.171686	-17.321586	101.050301	0.184226	1.055346	0.514433	28.995729	-2.112469	-0.915628	23.616091	0.412179	22.227856	-6.978269	0.000000	27.530343	2.046440	4.464657	18.213965	0.317894	19.256319	-5.226591	0.000000	-0.162609	-1.362402	0.342387	-0.301982	-1.811994	0.363786	-0.267151	-3.312543	0.363786	-0.185846	-3.312543	0.299589	-0.150999	-2.778209	0.278190	-0.092915	-2.110360	0.256790	-1.161503	-15.411759	1.904255	0.000000	0.000000	6.886606	-0.722894	-2.668394	29.041336	-7.361206	11.966333	93.910031	88.131775	-0.990942	16.071923	24.263839	-23.176420	2.561520	92.142168	87.559189	-6.031415	7.568498
11.322034	0.387657	-18.121197	101.474015	0.184051	1.052569	0.517489	30.296299	-2.208964	-0.819275	24.197603	0.422328	22.590239	-7.373232	0.000000	28.986210	2.145038	4.402420	18.964392	0.330991	19.775957	-4.976657	0.000000	-0.161491	-1.424662	0.439091	-0.299905	-1.894800	0.466535	-0.265313	-3.463923	0.466535	-0.184568	-3.463923	0.384205	-0.149960	-2.905170	0.356762	-0.092276	-2.206801	0.329319	-1.153514	-16.116059	2.442095	0.000000	0.000000	7.295122	0.025337	-3.439452	28.780187	-6.816093	14.008492	91.103026	87.053743	0.488992	16.806613	25.309339	-21.667975	6.893704	88.601567	88.777339	-5.688629	8.529027
11.338983	0.589733	-18.879116	101.851966	0.183803	1.050129	0.520153	31.477694	-2.309272	-0.753003	24.677208	0.430699	22.899278	-7.683919	0.000000	30.323847	2.229169	4.189585	19.606406	0.342196	20.225422	-4.594260	0.000000	-0.154157	-1.482225	0.510506	-0.286285	-1.971359	0.542412	-0.253264	-3.603881	0.542412	-0.176186	-3.603881	0.446692	-0.143150	-3.022552	0.414786	-0.088085	-2.295966	0.382879	-1.101127	-16.767221	2.839279	0.000000	0.000000	7.912705	0.845536	-4.068168	28.531428	-6.221256	15.852741	88.594665	85.419448	2.088730	17.686414	25.903293	-20.350807	10.612304	85.482385	89.529692	-5.588164	9.493292
11.355932	0.771484	-19.583612	102.154844	0.183497	1.048063	0.522332	32.519780	-2.397800	-0.691553	25.045404	0.437125	23.126040	-7.931923	0.000000	31.514292	2.286836	3.841652	20.126219	0.351269	20.609891	-4.122679	0.000000	-0.141735	-1.535076	0.562603	-0.263215	-2.041650	0.597766	-0.232856	-3.732383	0.597766	-0.161988	-3.732383	0.492277	-0.131615	-3.130326	0.457115	-0.080987	-2.377832	0.421952	-1.012396	-17.365081	3.129028	0.000000	0.000000	8.636362	1.724699	-4.512877	28.264759	-5.592753	17.500308	86.480650	83.396004	3.699215	18.603499	26.047468	-19.246931	13.674043	82.880664	89.734169	-5.717255	10.275361
11.372881	0.927925	-20.232520	102.372063	0.183152	1.046374	0.523982	33.420020	-2.470678	-0.625574	25.306061	0.441674	23.262281	-8.131733	0.000000	32.549641	2.313950	3.361987	20.523221	0.358198	20.934109	-3.567041	0.000000	-0.124536	-1.583485	0.603994	-0.231276	-2.106035	0.641743	-0.204600	-3.850085	0.641743	-0.142332	-3.850085	0.528494	-0.115644	-3.229042	0.490745	-0.071160	-2.452818	0.452995	-0.889547	-17.912697	3.359231	0.000000	0.000000	9.369405	2.617398	-4.758908	27.936924	-4.952130	18.925282	84.829806	81.139997	5.209459	19.431497	25.808826	-18.370590	16.124908	80.845872	89.377425	-6.038426	10.748675
11.389831	1.042980	-20.817805	102.490728	0.182806	1.045050	0.525098	34.175711	-2.531980	-0.520209	25.473146	0.444590	23.305648	-8.319174	0.000000	33.414505	2.326167	2.830133	20.792691	0.362901	21.175531	-3.043608	0.000000	-0.103893	-1.629539	0.650516	-0.192940	-2.167287	0.691173	-0.170686	-3.962061	0.691173	-0.118740	-3.962061	0.569202	-0.096475	-3.322956	0.528544	-0.059365	-2.524156	0.487887	-0.742100	-18.433672	3.617976	0.000000	0.000000	10.005041	3.470615	-4.881032	27.504943	-4.333385	20.080304	83.681003	78.788965	6.476948	20.095538	25.319122	-17.719893	18.098791	79.367628	88.624186	-6.520641	10.866868
